<svg width="30" height="30" viewBox="0 0 30 30" fill="none" xmlns="http://www.w3.org/2000/svg">
<path d="M0 13.4418C0 6.01809 6.0181 0 13.4418 0V16.5582C13.4418 23.9819 7.42369 30 0 30V13.4418Z" fill="#111827"/>
<path d="M15.3917 7.04313C15.3917 3.15332 18.545 0 22.4348 0H22.9568C26.8467 0 30 3.15332 30 7.04313C30 10.9329 26.8467 14.0863 22.9568 14.0863H22.4348C18.545 14.0863 15.3917 10.9329 15.3917 7.04313Z" fill="#111827"/>
<path d="M15.3917 22.9568C15.3917 19.067 18.545 15.9137 22.4348 15.9137H22.9568C26.8467 15.9137 30 19.067 30 22.9568C30 26.8466 26.8467 30 22.9568 30H22.4348C18.545 30 15.3917 26.8466 15.3917 22.9568Z" fill="#111827"/>
</svg>
